<svg width="88" height="25" viewBox="0 0 88 25" fill="none" xmlns="http://www.w3.org/2000/svg">
<path d="M45.5696 9.65911V2.67765C45.5696 2.59596 45.5534 2.51508 45.5218 2.43974C45.4903 2.3644 45.444 2.2961 45.3857 2.23884L44.1449 1.01491C44.0571 0.926979 43.9454 0.866819 43.8237 0.841931C43.702 0.817043 43.5757 0.82853 43.4604 0.874958C43.3452 0.921386 43.2462 1.0007 43.1757 1.10302C43.1053 1.20534 43.0665 1.32613 43.0642 1.45034V8.4318C43.0643 8.51304 43.0804 8.59346 43.1118 8.6684C43.1432 8.74334 43.1891 8.8113 43.247 8.86835L44.4878 10.0923C44.5756 10.1799 44.6871 10.2399 44.8086 10.2648C44.9302 10.2897 45.0563 10.2784 45.1715 10.2323C45.2866 10.1862 45.3857 10.1073 45.4565 10.0054C45.5273 9.90352 45.5666 9.78312 45.5696 9.65911Z" fill="#1ED760"/>
<path d="M66.2003 9.26504C66.0071 9.07779 65.8142 8.8973 65.6217 8.72358C64.9335 8.10315 65.1704 7.00896 66.0435 6.68182C66.4867 6.51121 66.8893 6.24994 67.2257 5.91475C69.4457 3.77711 67.8608 0.0635928 64.744 0.0635928H49.1353C48.9712 0.0613407 48.8084 0.0918227 48.6563 0.153257C48.5041 0.21469 48.3658 0.305841 48.2493 0.42138C48.1328 0.536919 48.0405 0.674526 47.9779 0.826151C47.9152 0.977776 47.8834 1.14038 47.8843 1.30444V1.31572C47.8882 1.64384 48.0218 1.95706 48.2561 2.18686C48.4903 2.41665 48.806 2.54431 49.1342 2.5419H64.8422C66.1259 2.5419 66.1507 4.44942 64.8422 4.44942H49.1342C48.806 4.44702 48.4903 4.57467 48.2561 4.80447C48.0218 5.03427 47.8882 5.34749 47.8843 5.67561V8.32989C47.8844 8.49039 47.9165 8.64925 47.9787 8.79721C48.0409 8.94517 48.1319 9.07928 48.2464 9.19172C49.036 9.97007 50.3897 9.42409 50.3897 8.32989V8.15166C50.3921 7.82335 50.5245 7.50937 50.7579 7.27848C50.9913 7.0476 51.3067 6.91864 51.635 6.91984H54.8533C58.9075 6.91984 62.0051 8.77547 64.1969 10.9909C64.4252 11.2211 64.7336 11.3541 65.0576 11.3621L65.2945 11.3688C66.4316 11.3993 67.0125 10.0479 66.2003 9.26504Z" fill="#1ED760"/>
<path d="M85.8835 13.2934C84.9593 14.1121 83.9895 14.8777 82.9788 15.5868C80.7453 17.1085 79.5721 17.4176 77.0521 17.4176C74.5704 17.4176 73.2291 17.0464 71.0475 15.5619C70.0469 14.8598 69.0862 14.1025 68.1698 13.2934C67.1072 12.4406 66.0333 13.2438 66.0333 14.1699V21.3635C66.0328 21.4656 66.0525 21.5667 66.0912 21.6612C66.1299 21.7557 66.1869 21.8416 66.2589 21.9139L67.1614 22.8107C67.6634 23.306 68.5252 22.9585 68.5252 22.2603V18.3911C68.5275 18.2468 68.5689 18.1059 68.6451 17.9834C68.7213 17.8608 68.8293 17.7613 68.9577 17.6954C69.086 17.6295 69.2298 17.5997 69.3738 17.6092C69.5178 17.6186 69.6565 17.667 69.7751 17.7492C71.343 18.8209 73.0035 19.6082 74.8941 19.8925C78.4847 20.4317 81.4131 19.6567 84.267 17.7357C84.3859 17.6557 84.5242 17.6093 84.6673 17.6013C84.8104 17.5933 84.953 17.6241 85.08 17.6904C85.2071 17.7567 85.3139 17.856 85.3892 17.978C85.4645 18.0999 85.5055 18.2399 85.5079 18.3832V21.3635C85.5074 21.4656 85.527 21.5667 85.5657 21.6612C85.6045 21.7557 85.6615 21.8416 85.7335 21.9139L86.6359 22.8107C87.1379 23.306 87.9997 22.9585 87.9997 22.2603V14.1733C88.0189 13.1806 86.8581 12.4767 85.8835 13.2934Z" fill="#1ED760"/>
<path d="M23.346 11.2329C23.6059 11.4262 23.9311 11.5102 24.2521 11.467C24.5731 11.4238 24.8645 11.2568 25.064 11.0016C27.3438 8.0078 27.9676 7.1832 31.0201 3.16511C31.7375 2.292 32.2857 2.24462 32.9862 3.16511L35.8988 6.94518H30.8035C30.4825 6.94518 30.1746 7.0727 29.9476 7.2997C29.7206 7.52669 29.5931 7.83456 29.5931 8.15557C29.5931 8.47659 29.7206 8.78446 29.9476 9.01145C30.1746 9.23844 30.4825 9.36596 30.8035 9.36596H37.7624L39.0461 11.0016C39.2456 11.2568 39.537 11.4238 39.858 11.467C40.179 11.5102 40.5042 11.4262 40.7641 11.2329C40.8912 11.1376 40.9982 11.0181 41.0788 10.8813C41.1595 10.7445 41.2123 10.5931 41.2341 10.4357C41.2559 10.2784 41.2463 10.1183 41.2059 9.96473C41.1655 9.81113 41.0951 9.66705 40.9987 9.54081C38.9073 6.82448 36.8092 4.04837 34.6986 1.3061C33.4059 -0.366792 30.7595 -0.476214 29.4363 1.23052C27.3449 4.00851 25.2366 6.77748 23.1113 9.53743C23.0146 9.66382 22.9438 9.80815 22.9032 9.96207C22.8626 10.116 22.8529 10.2764 22.8748 10.4341C22.8966 10.5918 22.9495 10.7436 23.0304 10.8807C23.1112 11.0178 23.2185 11.1375 23.346 11.2329Z" fill="#1ED760"/>
<path d="M69.5224 11.2329C69.7822 11.4258 70.1071 11.5097 70.4279 11.4665C70.7486 11.4233 71.0398 11.2565 71.2393 11.0016C73.5191 8.0078 74.144 7.1832 77.1965 3.16511C77.9128 2.292 78.4621 2.24462 79.1627 3.16511L82.0753 6.94518H76.9799C76.6589 6.94518 76.351 7.0727 76.124 7.2997C75.897 7.52669 75.7695 7.83456 75.7695 8.15557C75.7695 8.47659 75.897 8.78446 76.124 9.01145C76.351 9.23844 76.6589 9.36596 76.9799 9.36596H83.9422L85.2259 11.0016C85.4254 11.2568 85.7168 11.4238 86.0378 11.467C86.3588 11.5102 86.684 11.4262 86.9439 11.2329C87.0709 11.1375 87.1778 11.018 87.2584 10.8811C87.3389 10.7443 87.3916 10.5928 87.4133 10.4355C87.435 10.2782 87.4253 10.1181 87.3848 9.96456C87.3444 9.811 87.2739 9.66698 87.1774 9.54081C85.086 6.82448 82.989 4.04837 80.8773 1.3061C79.5845 -0.366792 76.9382 -0.476214 75.6161 1.23052C73.5217 4.01302 71.4134 6.78425 69.2912 9.54419C69.1951 9.67012 69.1249 9.81378 69.0845 9.96692C69.0442 10.1201 69.0344 10.2797 69.0559 10.4366C69.0774 10.5935 69.1297 10.7446 69.2097 10.8813C69.2898 11.0179 69.396 11.1374 69.5224 11.2329Z" fill="#1ED760"/>
<path d="M37.6078 13.1221H26.7684C25.3313 13.1221 24.1615 13.835 23.32 14.9269C20.4705 18.6179 22.9319 24.0291 26.5123 24.1148H37.354C40.2316 24.1148 42.0534 21.209 42.0534 18.619C42.0523 16.09 40.2733 13.1864 37.6078 13.1221ZM36.8181 21.6952H27.3042C26.289 21.6952 25.5163 21.3568 24.9929 20.6111C24.0182 19.2259 24.0769 15.544 27.3042 15.544H36.8159C37.8052 15.544 38.6129 15.8959 39.1272 16.628C40.1199 18.037 40.0173 21.6929 36.8159 21.6929L36.8181 21.6952Z" fill="#1ED760"/>
<path d="M59.0903 13.1221H48.2498C46.8138 13.1221 45.644 13.835 44.8025 14.9269C41.952 18.6179 44.4145 24.0291 47.9949 24.1148H58.8354C61.713 24.1148 63.5337 21.209 63.5337 18.619C63.5337 16.09 61.7559 13.1864 59.0903 13.1221ZM58.3007 21.6952H48.7868C47.7715 21.6952 46.9988 21.3568 46.4754 20.6111C45.4997 19.2259 45.5594 15.544 48.7868 15.544H58.2984C59.2877 15.544 60.0943 15.8959 60.6098 16.628C61.607 18.037 61.4998 21.6929 58.2984 21.6929L58.3007 21.6952Z" fill="#1ED760"/>
<path d="M21.2929 1.46145C21.2832 1.14284 21.1499 0.840507 20.9211 0.618551C20.6923 0.396594 20.3861 0.272461 20.0673 0.272461C19.7485 0.272461 19.4423 0.396594 19.2135 0.618551C18.9847 0.840507 18.8513 1.14284 18.8417 1.46145V3.6194H21.2929V1.46145Z" fill="#1ED760"/>
<path d="M17.5794 8.81064H15.4576C14.4807 8.81064 13.7655 8.47222 13.2906 7.9082H10.5574C11.2342 9.68261 12.6826 11.1795 14.5901 11.2292H20.0318C20.1962 11.2308 20.3592 11.2 20.5117 11.1384C20.6641 11.0769 20.8029 10.9859 20.92 10.8706C21.0372 10.7553 21.1305 10.618 21.1945 10.4666C21.2585 10.3152 21.2919 10.1527 21.293 9.98831V7.90933H18.7943C18.7169 8.17092 18.5565 8.40026 18.3374 8.56281C18.1183 8.72537 17.8523 8.81234 17.5794 8.81064Z" fill="#1ED760"/>
<path d="M5.03221 2.67069H7.2883C8.29113 2.67069 9.0221 3.03053 9.49362 3.61937H12.2009C11.5365 1.82353 10.0746 0.297288 8.15012 0.251038H2.57759C2.41317 0.249402 2.25004 0.280224 2.09755 0.341738C1.94506 0.403253 1.80621 0.494253 1.68895 0.609521C1.5717 0.72479 1.47833 0.862061 1.41422 1.01347C1.3501 1.16488 1.31649 1.32746 1.31531 1.49189V3.62276H3.797C3.86558 3.34814 4.02486 3.10473 4.24905 2.93193C4.47323 2.75914 4.74919 2.66708 5.03221 2.67069Z" fill="#1ED760"/>
<path d="M18.1773 12.3986H8.96116C8.79674 12.397 8.63362 12.4278 8.48113 12.4893C8.32864 12.5509 8.18979 12.6419 8.07253 12.7571C7.95527 12.8724 7.86191 13.0097 7.79779 13.1611C7.73367 13.3125 7.70006 13.4751 7.69888 13.6395C7.69895 13.8027 7.73173 13.9643 7.79528 14.1146C7.85883 14.265 7.95186 14.4011 8.06888 14.5149C8.30786 14.7466 8.62824 14.8754 8.96116 14.8736H18.2754C19.5072 14.8736 19.6437 16.7822 18.3014 16.7822H5.03219C4.86777 16.7839 4.70464 16.753 4.55216 16.6915C4.39967 16.63 4.26082 16.539 4.14356 16.4237C4.0263 16.3085 3.93293 16.1712 3.86882 16.0198C3.8047 15.8684 3.77109 15.7058 3.76991 15.5414V7.91016H1.31754V10.023C1.3171 10.0811 1.32125 10.1392 1.32995 10.1967V17.5888C1.32121 17.6394 1.31705 17.6908 1.31754 17.7422V22.4021C1.31663 22.5653 1.34818 22.727 1.41034 22.8779C1.47251 23.0287 1.56405 23.1657 1.67965 23.2809C1.91677 23.5127 2.23579 23.6416 2.56741 23.6396H18.1773C20.8744 23.6396 22.5766 20.7834 21.223 18.5183C21.1378 18.3754 21.0927 18.212 21.0927 18.0456C21.0927 17.8792 21.1378 17.7159 21.223 17.573C22.5597 15.318 20.9162 12.3986 18.1773 12.3986ZM18.2811 21.1647H4.82801C4.57801 21.1698 4.33526 21.0805 4.1483 20.9144C3.96134 20.7484 3.84393 20.5179 3.81954 20.269C3.81211 20.1374 3.83181 20.0058 3.87741 19.8821C3.92301 19.7585 3.99355 19.6456 4.08463 19.5504C4.17572 19.4552 4.2854 19.3797 4.40688 19.3287C4.52836 19.2777 4.65904 19.2522 4.79079 19.2538H18.2754C19.5839 19.2571 19.5603 21.1647 18.2754 21.1647H18.2811Z" fill="#1ED760"/>
<path d="M3.76987 5.31543H1.3175V6.21448H3.76987V5.31543Z" fill="#1ED760"/>
<path d="M12.5799 5.31543H10.123C10.1287 5.36055 10.1321 5.40568 10.1355 5.45193C10.1467 5.61662 10.1434 5.77906 10.1501 5.94488C10.1501 6.034 10.1591 6.12424 10.167 6.21448H12.6217C12.6115 6.12085 12.6047 6.0261 12.6014 5.92909C12.6014 5.79259 12.6014 5.6561 12.5923 5.51961C12.5901 5.45192 12.5856 5.38424 12.5799 5.31543Z" fill="#1ED760"/>
<path d="M0.494083 5.0861H22.6692V5.09512H22.8282C22.9846 5.09482 23.1345 5.03257 23.2451 4.922C23.3556 4.81142 23.4179 4.66153 23.4182 4.50515V4.44424C23.4179 4.28786 23.3556 4.13797 23.2451 4.0274C23.1345 3.91682 22.9846 3.85457 22.8282 3.85428H21.2929V3.84863H18.8417V3.85428H12.2855V3.84863H9.65718V3.85428H3.77105V3.84863H1.31755V3.85428H0.650881C0.478439 3.85487 0.313231 3.92363 0.191295 4.04557C0.0693602 4.1675 0.000594631 4.33271 0 4.50515C0.000279471 4.6448 0.050084 4.77982 0.140554 4.88619C0.231025 4.99257 0.356295 5.0634 0.494083 5.0861Z" fill="#1ED760"/>
<path d="M22.6692 7.68985H22.8282C22.9846 7.68955 23.1345 7.6273 23.2451 7.51672C23.3556 7.40615 23.4179 7.25626 23.4182 7.09988V7.03897C23.4179 6.88259 23.3556 6.7327 23.2451 6.62213C23.1345 6.51155 22.9846 6.4493 22.8282 6.449H21.2929V6.44336H18.8417V6.449H12.6499C12.6499 6.449 12.6499 6.449 12.6499 6.44336H10.1907C10.1913 6.4452 10.1913 6.44716 10.1907 6.449H3.76992V6.44336H1.31755V6.449H0.650881C0.478439 6.4496 0.313231 6.51836 0.191295 6.6403C0.0693602 6.76223 0.000594631 6.92744 0 7.09988C0.000279471 7.23953 0.050084 7.37454 0.140554 7.48092C0.231025 7.58729 0.356295 7.65813 0.494083 7.68082H22.6692V7.68985Z" fill="#1ED760"/>
<path d="M21.2929 5.31543H18.8417V6.21448H21.2929V5.31543Z" fill="#1ED760"/>
</svg>
