<svg width="31" height="30" viewBox="0 0 31 30" fill="none" xmlns="http://www.w3.org/2000/svg">
<path d="M20.1873 29.651V19.6811H23.9202V15.9467H20.1873V13.2801C20.1873 12.3404 20.7051 11.6798 21.4531 11.6798H23.9199L23.9289 7.96827L23.1911 7.93829C22.9092 7.92684 22.6027 7.92079 22.2946 7.92079C20.4801 7.92079 19.0939 8.13109 18.3035 8.54792C16.6495 9.42161 16.301 10.7099 16.3178 15.1801L16.3193 15.9467H13.2523V19.6811H16.4528V29.651H5.53326C2.8797 29.651 0.720947 27.4968 0.720947 24.8486V4.80234C0.720947 2.15415 2.8797 0 5.53326 0H25.6302C28.283 0 30.4417 2.15415 30.4417 4.80234V24.8494C30.4417 27.4976 28.283 29.651 25.6302 29.651H20.1873Z" fill="white"/>
</svg>
