<svg width="31" height="30" viewBox="0 0 31 30" fill="none" xmlns="http://www.w3.org/2000/svg">
<path d="M25.3509 29.651H5.25392C2.60036 29.651 0.44165 27.4968 0.44165 24.8486V4.80233C0.44165 2.15414 2.60036 0 5.25392 0H25.3509C28.0037 0 30.1624 2.15414 30.1624 4.80233V24.8494C30.1624 27.4976 28.0037 29.651 25.3509 29.651ZM10.4146 6.13717H20.3875C22.5059 6.13717 24.2232 7.85449 24.2232 9.9729V19.9458C24.2232 22.0642 22.5059 23.7815 20.3875 23.7815H10.4146C8.29614 23.7815 6.57882 22.0642 6.57882 19.9458V9.9729C6.57882 7.85449 8.29614 6.13717 10.4146 6.13717ZM10.4146 3.83573C7.02509 3.83573 4.27738 6.58344 4.27738 9.9729V19.9458C4.27738 23.3353 7.02509 26.083 10.4146 26.083H20.3875C23.7769 26.083 26.5246 23.3353 26.5246 19.9458V9.9729C26.5246 6.58344 23.7769 3.83573 20.3875 3.83573H10.4146ZM15.401 20.3294C18.3668 20.3294 20.771 17.9251 20.771 14.9594C20.771 11.9936 18.3668 9.58933 15.401 9.58933C12.4352 9.58933 10.031 11.9936 10.031 14.9594C10.031 17.9251 12.4352 20.3294 15.401 20.3294ZM15.401 18.0279C13.7063 18.0279 12.3324 16.6541 12.3324 14.9594C12.3324 13.2646 13.7063 11.8908 15.401 11.8908C17.0957 11.8908 18.4696 13.2646 18.4696 14.9594C18.4696 16.6541 17.0957 18.0279 15.401 18.0279ZM21.1546 10.74C22.002 10.74 22.6889 10.0531 22.6889 9.20576C22.6889 8.35839 22.002 7.67146 21.1546 7.67146C20.3072 7.67146 19.6203 8.35839 19.6203 9.20576C19.6203 10.0531 20.3072 10.74 21.1546 10.74Z" fill="white"/>
</svg>
