<svg width="251" height="69" viewBox="0 0 251 69" fill="none" xmlns="http://www.w3.org/2000/svg">
<path d="M129.968 27.5492V7.63745C129.968 7.40447 129.922 7.17379 129.832 6.95891C129.742 6.74402 129.61 6.54923 129.444 6.38593L125.905 2.89519C125.655 2.64439 125.336 2.47281 124.989 2.40182C124.642 2.33084 124.281 2.3636 123.953 2.49602C123.624 2.62844 123.342 2.85466 123.141 3.14648C122.94 3.43829 122.829 3.7828 122.823 4.13706V24.0488C122.823 24.2805 122.869 24.5098 122.958 24.7236C123.048 24.9373 123.179 25.1311 123.344 25.2938L126.883 28.7846C127.133 29.0346 127.451 29.2057 127.798 29.2767C128.144 29.3477 128.504 29.3154 128.833 29.1839C129.161 29.0524 129.444 28.8274 129.646 28.5368C129.847 28.2462 129.96 27.9028 129.968 27.5492Z" fill="#1ED760"/>
<path d="M188.809 26.4263C188.258 25.8922 187.708 25.3774 187.158 24.882C185.196 23.1125 185.872 19.9917 188.362 19.0587C189.626 18.5721 190.774 17.8269 191.733 16.8709C198.065 10.7742 193.545 0.182949 184.655 0.182949H140.138C139.67 0.176526 139.206 0.263463 138.772 0.438677C138.338 0.613892 137.943 0.873862 137.611 1.20339C137.279 1.53292 137.016 1.92538 136.837 2.35783C136.658 2.79028 136.567 3.25403 136.57 3.72195V3.75412C136.581 4.68993 136.962 5.58327 137.63 6.23867C138.298 6.89408 139.199 7.25817 140.135 7.2513H184.935C188.597 7.2513 188.667 12.6917 184.935 12.6917H140.135C139.199 12.6848 138.298 13.0489 137.63 13.7043C136.962 14.3597 136.581 15.2531 136.57 16.1889V23.7591C136.57 24.2169 136.662 24.67 136.839 25.092C137.017 25.514 137.276 25.8965 137.603 26.2171C139.855 28.437 143.716 26.8799 143.716 23.7591V23.2508C143.722 22.3144 144.1 21.4189 144.766 20.7604C145.431 20.1019 146.331 19.7341 147.267 19.7375H156.446C168.009 19.7375 176.844 25.03 183.095 31.3487C183.746 32.0052 184.626 32.3845 185.55 32.4072L186.225 32.4265C189.468 32.5133 191.125 28.659 188.809 26.4263Z" fill="#1ED760"/>
<path d="M244.947 37.9147C242.311 40.2495 239.545 42.4332 236.663 44.4554C230.292 48.7955 226.947 49.6771 219.759 49.6771C212.681 49.6771 208.856 48.6186 202.634 44.3846C199.78 42.3822 197.04 40.2222 194.426 37.9147C191.396 35.4825 188.333 37.7732 188.333 40.4145V60.9311C188.331 61.2223 188.387 61.5109 188.498 61.7803C188.608 62.0497 188.771 62.2947 188.976 62.5011L191.55 65.0588C192.982 66.4712 195.44 65.4803 195.44 63.4888V52.4536C195.446 52.0421 195.565 51.6402 195.782 51.2907C195.999 50.9413 196.307 50.6574 196.673 50.4694C197.039 50.2814 197.45 50.1964 197.86 50.2235C198.271 50.2505 198.666 50.3886 199.004 50.6229C203.476 53.6794 208.212 55.925 213.604 56.7358C223.845 58.2736 232.197 56.0634 240.337 50.5843C240.676 50.3562 241.07 50.2238 241.478 50.201C241.887 50.1783 242.293 50.2661 242.656 50.4552C243.018 50.6443 243.323 50.9276 243.537 51.2754C243.752 51.6231 243.869 52.0224 243.876 52.4311V60.9311C243.874 61.2223 243.93 61.5109 244.041 61.7803C244.151 62.0497 244.314 62.2947 244.519 62.5011L247.093 65.0588C248.525 66.4712 250.983 65.4803 250.983 63.4888V40.4242C251.037 37.593 247.727 35.5854 244.947 37.9147Z" fill="#1ED760"/>
<path d="M66.5847 32.0371C67.3259 32.5884 68.2533 32.8281 69.1689 32.7048C70.0844 32.5816 70.9155 32.1053 71.4846 31.3776C77.9867 22.8389 79.7658 20.4871 88.4718 9.02715C90.518 6.53698 92.0816 6.40186 94.0795 9.02715L102.386 19.8082H87.8541C86.9385 19.8082 86.0604 20.1719 85.413 20.8193C84.7656 21.4667 84.4019 22.3448 84.4019 23.2604C84.4019 24.1759 84.7656 25.054 85.413 25.7014C86.0604 26.3488 86.9385 26.7125 87.8541 26.7125H107.701L111.363 31.3776C111.932 32.1053 112.763 32.5816 113.678 32.7048C114.594 32.8281 115.521 32.5884 116.263 32.0371C116.625 31.7655 116.93 31.4247 117.16 31.0345C117.39 30.6442 117.541 30.2123 117.603 29.7636C117.665 29.3149 117.638 28.8583 117.523 28.4202C117.408 27.9822 117.207 27.5712 116.932 27.2112C110.967 19.464 104.983 11.5463 98.9633 3.72509C95.2763 -1.04612 87.7286 -1.3582 83.9547 3.50953C77.9899 11.4326 71.9768 19.3299 65.9155 27.2015C65.6395 27.562 65.4377 27.9737 65.3219 28.4127C65.2061 28.8517 65.1785 29.3093 65.2407 29.759C65.303 30.2087 65.4538 30.6416 65.6845 31.0327C65.9152 31.4237 66.2211 31.7651 66.5847 32.0371Z" fill="#1ED760"/>
<path d="M198.284 32.0371C199.025 32.5874 199.951 32.8265 200.866 32.7033C201.781 32.5801 202.611 32.1043 203.18 31.3776C209.683 22.8389 211.465 20.4871 220.171 9.02715C222.214 6.53698 223.781 6.40186 225.779 9.02715L234.086 19.8082H219.553C218.638 19.8082 217.76 20.1719 217.112 20.8193C216.465 21.4667 216.101 22.3448 216.101 23.2604C216.101 24.1759 216.465 25.054 217.112 25.7014C217.76 26.3488 218.638 26.7125 219.553 26.7125H239.41L243.071 31.3776C243.64 32.1053 244.472 32.5816 245.387 32.7048C246.303 32.8281 247.23 32.5884 247.971 32.0371C248.334 31.7652 248.638 31.4243 248.868 31.0339C249.098 30.6436 249.248 30.2116 249.31 29.7629C249.372 29.3142 249.344 28.8577 249.229 28.4198C249.113 27.9818 248.912 27.571 248.637 27.2112C242.672 19.464 236.692 11.5463 230.669 3.72509C226.982 -1.04612 219.434 -1.3582 215.663 3.50953C209.69 11.4455 203.677 19.3492 197.624 27.2208C197.35 27.58 197.15 27.9897 197.035 28.4265C196.92 28.8633 196.892 29.3185 196.953 29.766C197.015 30.2135 197.164 30.6445 197.392 31.0343C197.62 31.424 197.923 31.7648 198.284 32.0371Z" fill="#1ED760"/>
<path d="M107.261 37.4258H76.3459C72.2471 37.4258 68.9107 39.4591 66.5107 42.5734C58.3838 53.1003 65.4039 68.5336 75.6155 68.7781H106.537C114.744 68.7781 119.94 60.4904 119.94 53.1036C119.937 45.8904 114.863 37.6092 107.261 37.4258ZM105.009 61.8771H77.8741C74.9785 61.8771 72.7747 60.9119 71.2819 58.7853C68.5022 54.8344 68.6694 44.3333 77.8741 44.3333H105.002C107.824 44.3333 110.127 45.3371 111.594 47.4251C114.426 51.4434 114.133 61.8706 105.002 61.8706L105.009 61.8771Z" fill="#1ED760"/>
<path d="M168.53 37.4258H137.612C133.517 37.4258 130.18 39.4591 127.78 42.5734C119.65 53.1003 126.674 68.5336 136.885 68.7781H167.803C176.011 68.7781 181.203 60.4904 181.203 53.1036C181.203 45.8904 176.133 37.6092 168.53 37.4258ZM166.278 61.8771H139.144C136.248 61.8771 134.044 60.9119 132.552 58.7853C129.769 54.8344 129.939 44.3333 139.144 44.3333H166.272C169.093 44.3333 171.394 45.3371 172.864 47.4251C175.708 51.4434 175.402 61.8706 166.272 61.8706L166.278 61.8771Z" fill="#1ED760"/>
<path d="M60.7293 4.16943C60.7017 3.2607 60.3213 2.39844 59.6688 1.7654C59.0163 1.13236 58.1429 0.77832 57.2337 0.77832C56.3246 0.77832 55.4512 1.13236 54.7986 1.7654C54.1461 2.39844 53.7657 3.2607 53.7382 4.16943V10.3241H60.7293V4.16943Z" fill="#1ED760"/>
<path d="M50.1379 25.1295H44.0862C41.3 25.1295 39.2603 24.1643 37.9058 22.5557H30.1104C32.0407 27.6164 36.1717 31.8858 41.6121 32.0273H57.1322C57.601 32.032 58.0661 31.9441 58.5008 31.7686C58.9356 31.5931 59.3314 31.3335 59.6656 31.0047C59.9997 30.6759 60.2657 30.2844 60.4482 29.8525C60.6307 29.4207 60.7262 28.9571 60.7291 28.4883V22.5589H53.6029C53.3819 23.305 52.9245 23.959 52.2995 24.4227C51.6746 24.8863 50.916 25.1343 50.1379 25.1295Z" fill="#1ED760"/>
<path d="M14.3523 7.61802H20.7868C23.647 7.61802 25.7318 8.64433 27.0766 10.3237H34.798C32.9031 5.20185 28.7335 0.848882 23.2448 0.716973H7.35148C6.88254 0.712306 6.41728 0.800212 5.98237 0.975657C5.54746 1.1511 5.15145 1.41064 4.81702 1.7394C4.48258 2.06815 4.2163 2.45966 4.03344 2.8915C3.85057 3.32334 3.75471 3.78702 3.75134 4.25597V10.3334H10.8293C11.0249 9.55018 11.4792 8.85593 12.1186 8.3631C12.758 7.87028 13.545 7.60773 14.3523 7.61802Z" fill="#1ED760"/>
<path d="M51.8431 35.3611H25.5579C25.089 35.3564 24.6237 35.4443 24.1888 35.6198C23.7539 35.7952 23.3579 36.0548 23.0235 36.3835C22.689 36.7123 22.4228 37.1038 22.2399 37.5356C22.057 37.9675 21.9612 38.4312 21.9578 38.9001C21.958 39.3656 22.0515 39.8264 22.2327 40.2552C22.414 40.684 22.6793 41.0722 23.0131 41.3967C23.6947 42.0578 24.6084 42.4252 25.5579 42.4198H52.123C55.6362 42.4198 56.0255 47.8634 52.197 47.8634H14.3522C13.8832 47.8681 13.418 47.7802 12.9831 47.6048C12.5482 47.4293 12.1521 47.1698 11.8177 46.841C11.4833 46.5122 11.217 46.1207 11.0341 45.6889C10.8513 45.2571 10.7554 44.7934 10.752 44.3244V22.5596H3.75768V28.5855C3.75643 28.7514 3.76826 28.917 3.79307 29.081V50.1638C3.76813 50.3083 3.75628 50.4547 3.75768 50.6013V63.8919C3.75509 64.3572 3.84505 64.8185 4.02235 65.2487C4.19965 65.679 4.46074 66.0697 4.79042 66.3982C5.46672 67.0594 6.37661 67.427 7.32242 67.4212H51.8431C59.5356 67.4212 64.3904 59.2751 60.5297 52.8148C60.2866 52.4072 60.1582 51.9414 60.1582 51.4668C60.1582 50.9922 60.2866 50.5264 60.5297 50.1187C64.3422 43.6874 59.6546 35.3611 51.8431 35.3611ZM52.139 60.3625H13.7698C13.0568 60.3773 12.3645 60.1224 11.8312 59.6488C11.298 59.1752 10.9631 58.5178 10.8936 57.808C10.8724 57.4328 10.9286 57.0573 11.0586 56.7047C11.1887 56.3521 11.3899 56.0301 11.6496 55.7585C11.9094 55.487 12.2223 55.2718 12.5687 55.1262C12.9152 54.9807 13.2879 54.9079 13.6637 54.9125H52.123C55.855 54.9221 55.7874 60.3625 52.123 60.3625H52.139Z" fill="#1ED760"/>
<path d="M10.752 15.1592H3.75769V17.7233H10.752V15.1592Z" fill="#1ED760"/>
<path d="M35.879 15.1592H28.8718C28.8879 15.2879 28.8976 15.4166 28.9072 15.5485C28.9394 16.0182 28.9297 16.4815 28.949 16.9544C28.949 17.2086 28.9748 17.466 28.9973 17.7233H35.9981C35.9691 17.4563 35.9498 17.1861 35.9402 16.9094C35.9402 16.5201 35.9402 16.1308 35.9144 15.7415C35.908 15.5485 35.8951 15.3554 35.879 15.1592Z" fill="#1ED760"/>
<path d="M1.40917 14.5059H64.6543V14.5317H65.108C65.554 14.5308 65.9815 14.3533 66.2968 14.0379C66.6122 13.7225 66.7898 13.295 66.7906 12.849V12.6753C66.7898 12.2293 66.6122 11.8018 66.2968 11.4864C65.9815 11.171 65.554 10.9935 65.108 10.9927H60.7293V10.9766H53.7381V10.9927H35.0393V10.9766H27.5431V10.9927H10.7553V10.9766H3.75778V10.9927H1.85637C1.36455 10.9944 0.89336 11.1905 0.54559 11.5382C0.197821 11.886 0.00169594 12.3572 0 12.849C0.000797074 13.2473 0.142844 13.6324 0.400873 13.9358C0.658902 14.2392 1.01618 14.4412 1.40917 14.5059Z" fill="#1ED760"/>
<path d="M64.6543 21.9311H65.108C65.554 21.9302 65.9815 21.7527 66.2968 21.4373C66.6122 21.1219 66.7898 20.6944 66.7906 20.2484V20.0747C66.7898 19.6287 66.6122 19.2012 66.2968 18.8858C65.9815 18.5705 65.554 18.3929 65.108 18.3921H60.7293V18.376H53.7381V18.3921H36.0785C36.0785 18.3921 36.0785 18.3921 36.0785 18.376H29.0649C29.0664 18.3812 29.0664 18.3868 29.0649 18.3921H10.7521V18.376H3.75778V18.3921H1.85637C1.36455 18.3938 0.89336 18.5899 0.54559 18.9377C0.197821 19.2854 0.00169594 19.7566 0 20.2484C0.000797074 20.6467 0.142844 21.0318 0.400873 21.3352C0.658902 21.6386 1.01618 21.8406 1.40917 21.9053H64.6543V21.9311Z" fill="#1ED760"/>
<path d="M60.7293 15.1592H53.7382V17.7233H60.7293V15.1592Z" fill="#1ED760"/>
</svg>
