<svg width="30" height="30" viewBox="0 0 30 30" fill="none" xmlns="http://www.w3.org/2000/svg">
<path d="M24.9094 29.651H4.81246C2.1589 29.651 0 27.4968 0 24.8486V4.80233C0 2.15414 2.1589 0 4.81246 0H24.9094C27.5622 0 29.7209 2.15414 29.7209 4.80233V24.8494C29.7209 27.4976 27.5622 29.651 24.9094 29.651ZM22.6117 8.91918C21.8886 8.15033 20.8697 7.67146 19.7407 7.67146C17.5471 7.67146 15.7688 9.47933 15.7688 11.7094C15.7688 12.0009 15.7993 12.2852 15.857 12.5591C12.5772 12.352 9.70906 10.5991 7.94922 8.00844C7.84131 8.48312 7.7844 8.9776 7.7844 9.48563C7.7844 11.1446 8.39254 12.6591 9.39455 13.8114C8.69556 13.6667 8.03772 13.4068 7.44128 13.0519C7.8987 14.8064 9.05608 16.2713 10.5912 17.1188C10.3771 17.1407 10.1599 17.1519 9.94013 17.1519C9.5695 17.1519 9.20617 17.12 8.85271 17.0588C9.68923 18.34 10.9586 19.3038 12.4485 19.7349C11.3248 20.7137 9.86474 21.3051 8.26892 21.3051C7.80068 21.3051 7.34411 21.2542 6.90432 21.1575C8.61404 22.4121 10.714 23.1513 12.9836 23.1513C18.4572 23.1513 22.9429 18.8518 23.3517 13.3936C23.5834 12.881 23.7126 12.3105 23.7126 11.7094C23.7126 11.537 23.702 11.3671 23.6813 11.2003C24.4376 10.9296 25.0242 10.2929 25.2355 9.49937C24.7176 9.88343 24.1049 10.1432 23.4397 10.2355C23.4162 10.1745 23.3911 10.1142 23.3648 10.0547C24.0319 9.56281 24.543 8.86435 24.8079 8.05128C24.1968 8.54695 23.439 8.86249 22.6117 8.91918Z" fill="white"/>
</svg>
