<svg width="84" height="83" viewBox="0 0 84 83" fill="none" xmlns="http://www.w3.org/2000/svg">
<circle cx="42.2323" cy="41.5" r="41.5" fill="#F2705B" fill-opacity="0.17"/>
<path d="M51.2195 54.2941H46.0976V51.7353H37.9024V54.2941H32.7805C32.2171 54.2941 31.7561 54.6779 31.7561 55.1471C31.7561 55.6162 32.2171 56 32.7805 56H51.2195C51.7829 56 52.2439 55.6162 52.2439 55.1471C52.2439 54.6779 51.7829 54.2941 51.2195 54.2941ZM61.9756 27H22.0244C21.461 27 21 27.3838 21 27.8529V45.7647H63V27.8529C63 27.3838 62.539 27 61.9756 27ZM31.1415 40.9882C31.0902 41.0735 31.039 41.2015 30.9366 41.2441C30.7317 41.4147 30.4756 41.5 30.2195 41.5C29.9634 41.5 29.7073 41.4147 29.5024 41.2441C29.4 41.1588 29.3488 41.0735 29.2976 40.9882C29.1951 40.8603 29.1951 40.775 29.1951 40.6471C29.1951 40.4338 29.2976 40.2206 29.5024 40.05C29.5537 40.0074 29.6049 39.9647 29.6561 39.9647C29.7073 39.9647 29.7585 39.9221 29.8098 39.8794C29.861 39.8794 29.9122 39.8368 30.0146 39.8368C30.3732 39.7941 30.6805 39.8794 30.9366 40.05C31.1415 40.2206 31.2439 40.4338 31.2439 40.6471C31.2439 40.775 31.2439 40.8603 31.1415 40.9882ZM31.2439 36.5529C31.2439 36.5956 31.1927 36.6382 31.1927 36.7235C31.1927 36.7662 31.1415 36.8088 31.0902 36.8515C31.039 36.8941 31.039 36.9368 30.9878 36.9794C30.7317 37.15 30.4756 37.2353 30.2195 37.2353C29.9634 37.2353 29.7073 37.15 29.5024 36.9794C29.2976 36.8088 29.1951 36.5956 29.1951 36.3824C29.1951 36.1691 29.2976 35.9559 29.5024 35.7853C29.861 35.4441 30.578 35.4441 30.9366 35.7853C31.1415 35.9559 31.2439 36.1691 31.2439 36.3824C31.2439 36.425 31.2439 36.5103 31.2439 36.5529ZM30.9366 32.7147C30.7317 32.8853 30.4756 32.9706 30.2195 32.9706C29.9634 32.9706 29.7073 32.8853 29.5024 32.7147C29.2976 32.5441 29.1951 32.3309 29.1951 32.1176C29.1951 31.9044 29.2976 31.6912 29.5024 31.5206C29.861 31.1794 30.578 31.1794 30.9366 31.5206C31.1415 31.6912 31.2439 31.9044 31.2439 32.1176C31.2439 32.3309 31.1415 32.5441 30.9366 32.7147ZM53.7805 41.5H35.3415C34.778 41.5 34.3171 41.1162 34.3171 40.6471C34.3171 40.1779 34.778 39.7941 35.3415 39.7941H53.7805C54.3439 39.7941 54.8049 40.1779 54.8049 40.6471C54.8049 41.1162 54.3439 41.5 53.7805 41.5ZM53.7805 37.2353H35.3415C34.778 37.2353 34.3171 36.8515 34.3171 36.3824C34.3171 35.9132 34.778 35.5294 35.3415 35.5294H53.7805C54.3439 35.5294 54.8049 35.9132 54.8049 36.3824C54.8049 36.8515 54.3439 37.2353 53.7805 37.2353ZM53.7805 32.9706H35.3415C34.778 32.9706 34.3171 32.5868 34.3171 32.1176C34.3171 31.6485 34.778 31.2647 35.3415 31.2647H53.7805C54.3439 31.2647 54.8049 31.6485 54.8049 32.1176C54.8049 32.5868 54.3439 32.9706 53.7805 32.9706ZM21 49.1765C21 49.6456 21.461 50.0294 22.0244 50.0294H61.9756C62.539 50.0294 63 49.6456 63 49.1765V47.4706H21V49.1765Z" fill="#F2705B"/>
</svg>
