<svg width="84" height="83" viewBox="0 0 84 83" fill="none" xmlns="http://www.w3.org/2000/svg">
<circle cx="42.2323" cy="41.5" r="41.5" fill="#E1762E" fill-opacity="0.17"/>
<path d="M62 59.9744C62 61.4103 60.8718 62.5385 59.4359 62.5385H35.5897C36.1026 61.8205 36.359 60.8974 36.359 59.9744H62ZM54.8205 57.9231H35.3333C34.7692 57.9231 34.3077 58.3846 34.3077 58.9487V59.9744C34.3077 61.4103 33.1795 62.5385 31.7436 62.5385C30.3077 62.5385 29.1795 61.4103 29.1795 59.9744V23.5641C29.1795 22.5897 28.8718 21.7179 28.4103 21H52.2564C53.6923 21 54.8205 22.1282 54.8205 23.5641V57.9231ZM38.4103 32.2821C38.4103 33.9744 39.7949 35.359 41.4872 35.359H42.5128C43.0769 35.359 43.5385 35.8205 43.5385 36.3846C43.5385 36.9487 43.0769 37.4103 42.5128 37.4103H39.9487C39.5385 37.4103 39.1795 37.6667 39.0256 37.9744C38.9744 38.1282 38.9231 38.2308 38.9231 38.4359C38.9231 39 39.3846 39.4615 39.9487 39.4615H40.9744V41.5128C40.9744 42.0769 41.4359 42.5385 42 42.5385C42.2051 42.5385 42.4103 42.4872 42.5641 42.3846C42.8718 42.1795 43.0256 41.8718 43.0256 41.5128V39.4103C44.4615 39.1538 45.5897 37.9231 45.5897 36.3846C45.5897 34.6923 44.2051 33.3077 42.5128 33.3077H41.4872C40.9231 33.3077 40.4615 32.8462 40.4615 32.2821C40.4615 31.7179 40.9231 31.2564 41.4872 31.2564H44.0513C44.6154 31.2564 45.0769 30.7949 45.0769 30.2308C45.0769 29.6667 44.6154 29.2051 44.0513 29.2051H43.0256V27.1538C43.0256 26.5897 42.5641 26.1282 42 26.1282C41.4359 26.1282 40.9744 26.5897 40.9744 27.1538V29.2564C39.5385 29.5128 38.4103 30.7436 38.4103 32.2821ZM51.7436 51.7692C51.7436 51.2051 51.2821 50.7436 50.718 50.7436H33.2821C32.7179 50.7436 32.2564 51.2051 32.2564 51.7692C32.2564 52.3333 32.7179 52.7949 33.2821 52.7949H50.718C50.7692 52.7949 50.8205 52.7949 50.8718 52.7949C51.3846 52.6923 51.7436 52.282 51.7436 51.7692ZM51.7436 46.641C51.7436 46.0769 51.2821 45.6154 50.718 45.6154H33.2821C32.7179 45.6154 32.2564 46.0769 32.2564 46.641C32.2564 47.2051 32.7179 47.6667 33.2821 47.6667H50.718C51.2821 47.6667 51.7436 47.2051 51.7436 46.641ZM24.5641 21C23.1282 21 22 22.1282 22 23.5641V26.641H27.1282V23.5641C27.1282 22.1282 26 21 24.5641 21Z" fill="#E1762E"/>
</svg>
