<svg width="84" height="83" viewBox="0 0 84 83" fill="none" xmlns="http://www.w3.org/2000/svg">
<circle cx="42.2323" cy="41.5" r="41.5" fill="#65C5B8" fill-opacity="0.17"/>
<path d="M37.5387 22C36.3369 22 35.6563 23.0356 35.3513 24.1988V25.25H62V24.1988C62 22.9963 61.0194 22 59.8177 22H37.5387ZM35.3513 26.55V28.5H62V26.55H35.3513ZM35.3513 29.8V37.3575C35.3513 38.5601 36.3369 39.55 37.5387 39.55H59.8177C61.0194 39.55 62 38.5601 62 37.3575V29.8H35.3513ZM39.9952 32.4381H43.7099C44.484 32.4381 45.1013 33.0826 45.1013 33.8587V35.5637C45.1013 36.3448 44.484 36.9881 43.7099 36.9881H39.9952C39.2211 36.9881 38.6038 36.345 38.6038 35.5637V33.8587C38.6038 33.0775 39.2211 32.4381 39.9952 32.4381V32.4381ZM39.9952 33.7381C39.9463 33.7381 39.905 33.7922 39.905 33.8587V35.5637C39.905 35.643 39.9463 35.688 39.9952 35.688H43.7099C43.7588 35.688 43.8 35.6403 43.8 35.5637V33.8587C43.8 33.7845 43.7588 33.7381 43.7099 33.7381H39.9952ZM36.6106 45.4013C35.3513 45.4013 33.1558 46.3593 31.6925 47.1088C31.9448 47.5709 32.1013 48.0926 32.1013 48.6538V57.4161C32.9291 57.2719 33.7688 57.1395 34.7038 57.1038C35.5074 57.1038 37.0094 58.2426 37.9856 58.9319C39.3766 59.9138 40.875 61 42.5 61C42.9892 61 43.4805 60.8391 44.1276 60.5976C47.6836 59.2682 55.1843 55.0248 59.5536 52.4688C60.6592 51.8573 61.0225 50.4415 60.3979 49.3597C59.7986 48.3217 58.5821 48.0689 57.3992 48.4723L49.2374 51.2983C49.2959 51.8293 49.2008 52.3798 48.9149 52.875C48.2004 54.1127 46.6017 54.5405 45.3641 53.8259L41.4196 51.5509C40.6042 51.1347 41.3071 49.9259 42.0722 50.4286L46.0115 52.7023C46.645 53.0681 47.4219 52.8611 47.7876 52.2275C48.1533 51.5941 47.9451 50.8185 47.3115 50.4528C44.4108 48.778 39.2663 45.4013 36.6106 45.4013ZM24.9538 46.7013C23.8596 46.7013 23 47.586 23 48.6551V57.7513C23 58.8161 23.8602 59.6968 24.9411 59.7038H28.8538C30.0407 59.7038 30.8013 58.6954 30.8013 57.75V48.6538C30.8013 47.5615 29.9177 46.7013 28.8551 46.7013H24.9538ZM26.2525 55.8025C26.6115 55.8025 26.9026 56.0936 26.9026 56.4525C26.9026 56.8115 26.6115 57.1026 26.2525 57.1026C25.8936 57.1026 25.6025 56.8115 25.6025 56.4525C25.6025 56.0936 25.8936 55.8025 26.2525 55.8025Z" fill="#65C5B8"/>
</svg>
