<svg width="84" height="83" viewBox="0 0 84 83" fill="none" xmlns="http://www.w3.org/2000/svg">
<circle cx="42.2323" cy="41.5" r="41.5" fill="#AD00FF" fill-opacity="0.17"/>
<path d="M42.2452 25.7493C32.3477 25.7493 24.3747 33.7223 24.3747 43.6199C24.3747 53.5174 32.3477 61.4904 42.2452 61.4904C52.1428 61.4904 60.1158 53.5174 60.1158 43.6199C60.1158 33.7223 52.1428 25.7493 42.2452 25.7493ZM42.2452 58.8786C33.8598 58.8786 26.9865 52.0053 26.9865 43.6199C26.9865 35.2345 33.8598 28.3612 42.2452 28.3612C50.6306 28.3612 57.5039 35.2345 57.5039 43.6199C57.5039 52.0053 50.6306 58.8786 42.2452 58.8786ZM25.3369 30.8356L30.8356 25.3369C31.3854 24.7871 31.3854 23.9623 30.8356 23.4124C30.2857 22.8625 29.4609 22.8625 28.911 23.4124L23.4124 28.911C22.8625 29.4609 22.8625 30.2857 23.4124 30.8356C23.6873 31.1105 23.9623 31.2479 24.3747 31.2479C24.7871 31.2479 25.062 31.1105 25.3369 30.8356ZM61.078 28.911L55.5794 23.4124C55.0295 22.8625 54.2047 22.8625 53.6549 23.4124C53.105 23.9623 53.105 24.7871 53.6549 25.3369L59.1535 30.8356C59.4284 31.1105 59.7034 31.2479 60.1158 31.2479C60.5282 31.2479 60.8031 31.1105 61.078 30.8356C61.6279 30.2857 61.6279 29.4609 61.078 28.911Z" fill="#C54BFF"/>
<path d="M53.1051 44.9946H52.9676C52.2803 44.8572 51.7304 44.3073 51.7304 43.62C51.7304 42.9326 52.2803 42.3828 52.9676 42.2453H53.1051C53.1051 42.2453 53.1051 42.2453 53.2425 42.2453H54.6172C53.9299 36.4717 49.3935 31.9354 43.6199 31.248V32.6227C43.6199 32.6227 43.6199 32.6227 43.6199 32.7602V32.8976C43.4825 33.585 42.9326 34.1348 42.2453 34.1348C41.5579 34.1348 41.0081 33.585 40.8706 32.8976V32.7602C40.8706 32.7602 40.8706 32.7602 40.8706 32.6227V31.248C35.0971 31.9354 30.5607 36.4717 29.8734 42.2453H31.248C31.248 42.2453 31.248 42.2453 31.3855 42.2453H31.5229C32.2103 42.3828 32.7601 42.9326 32.7601 43.62C32.7601 44.3073 32.2103 44.8572 31.5229 44.9946H31.3855C31.3855 44.9946 31.3855 44.9946 31.248 44.9946H29.8734C30.5607 50.7682 35.0971 55.3046 40.8706 55.9919V54.6172C40.8706 54.6172 40.8706 54.6172 40.8706 54.4798V54.3423C41.0081 53.655 41.5579 53.1051 42.2453 53.1051C42.9326 53.1051 43.4825 53.655 43.6199 54.3423V54.4798C43.6199 54.4798 43.6199 54.4798 43.6199 54.6172V55.9919C49.3935 55.3046 53.9299 50.7682 54.6172 44.9946H53.1051C53.2425 44.9946 53.2425 44.9946 53.1051 44.9946ZM47.7439 44.9946H42.2453C41.5579 44.9946 40.8706 44.3073 40.8706 43.62V36.7467C40.8706 36.0594 41.5579 35.372 42.2453 35.372C42.9326 35.372 43.6199 36.0594 43.6199 36.7467V42.2453H47.7439C48.4312 42.2453 49.1186 42.9326 49.1186 43.62C49.1186 44.3073 48.4312 44.9946 47.7439 44.9946Z" fill="#C54BFF"/>
</svg>
