<svg width="380" height="288" viewBox="0 0 380 288" fill="none" xmlns="http://www.w3.org/2000/svg">
<circle cx="129.5" cy="158.047" r="129.5" fill="#EBEBEB"/>
<path d="M355.125 0H151.031C137.612 0 126.734 10.8781 126.734 24.2969V150.641C126.734 164.059 137.612 174.938 151.031 174.938H355.125C368.544 174.938 379.422 164.059 379.422 150.641V24.2969C379.422 10.8781 368.544 0 355.125 0Z" fill="url(#paint0_linear_646_371)"/>
<path d="M325.969 19.4375H127.22C126.91 21.0389 126.747 22.6656 126.734 24.2969V150.641C126.734 157.085 129.294 163.265 133.851 167.821C138.407 172.378 144.587 174.938 151.031 174.938H355.125C356.756 174.925 358.383 174.762 359.984 174.452V53.4531C359.984 44.4316 356.401 35.7796 350.021 29.4004C343.642 23.0213 334.99 19.4375 325.969 19.4375Z" fill="url(#paint1_linear_646_371)"/>
<path d="M355.125 0H316.25C316.25 1.60359 316.25 3.20719 316.25 4.85938C316.25 20.3248 322.394 35.1568 333.329 46.0925C344.265 57.0283 359.097 63.1719 374.562 63.1719C376.215 63.1719 377.818 63.1719 379.422 62.9289V24.2969C379.422 17.8529 376.862 11.6729 372.305 7.11639C367.749 2.55984 361.569 0 355.125 0V0Z" fill="url(#paint2_linear_646_371)"/>
<path d="M126.734 24.2969V63.1719C128.338 63.1719 129.942 63.4148 131.594 63.4148C139.272 63.4149 146.875 61.8986 153.965 58.9529C161.056 56.0073 167.495 51.6903 172.913 46.2497C178.331 40.8091 182.621 34.3521 185.537 27.2492C188.454 20.1464 189.938 12.5375 189.906 4.85938C189.906 3.20719 189.906 1.60359 189.663 0H151.031C144.587 0 138.407 2.55984 133.851 7.11639C129.294 11.6729 126.734 17.8529 126.734 24.2969Z" fill="url(#paint3_linear_646_371)"/>
<path d="M379.422 112.007C377.818 112.007 376.215 112.007 374.562 112.007C359.139 112.007 344.344 118.117 333.415 129C322.486 139.883 316.314 154.653 316.25 170.076C316.25 171.729 316.25 173.332 316.25 174.936H355.125C361.569 174.936 367.749 172.376 372.305 167.819C376.862 163.263 379.422 157.083 379.422 150.639V112.007Z" fill="url(#paint4_linear_646_371)"/>
<path d="M359.984 113.659C347.474 116.889 336.392 124.183 328.476 134.394C320.56 144.605 316.26 157.156 316.25 170.077C316.25 171.729 316.25 173.332 316.25 174.936H355.125C356.756 174.923 358.383 174.761 359.984 174.45V113.659Z" fill="url(#paint5_linear_646_371)"/>
<path d="M359.984 61.2767V53.4531C359.984 44.4316 356.401 35.7796 350.021 29.4004C343.642 23.0213 334.99 19.4375 325.969 19.4375H318.145C320.752 29.5098 326.007 38.7011 333.364 46.058C340.721 53.4149 349.912 58.6695 359.984 61.2767V61.2767Z" fill="url(#paint6_linear_646_371)"/>
<path d="M188.011 19.4375H127.22C126.91 21.0389 126.747 22.6656 126.734 24.2969V63.1719C128.338 63.1719 129.942 63.4148 131.594 63.4148C144.546 63.3914 157.122 59.0561 167.338 51.0931C177.553 43.1301 184.827 31.9925 188.011 19.4375V19.4375Z" fill="url(#paint7_linear_646_371)"/>
<path d="M325.969 29.1562H121.875C108.456 29.1562 97.5781 40.0343 97.5781 53.4531V179.797C97.5781 193.216 108.456 204.094 121.875 204.094H325.969C339.388 204.094 350.266 193.216 350.266 179.797V53.4531C350.266 40.0343 339.388 29.1562 325.969 29.1562Z" fill="url(#paint8_linear_646_371)"/>
<path d="M325.969 29.1562H287.094C287.094 30.7598 287.094 32.3634 287.094 34.0156C287.094 49.4811 293.237 64.3131 304.173 75.2488C315.109 86.1845 329.941 92.3281 345.406 92.3281C347.058 92.3281 348.662 92.3281 350.266 92.0852V53.4531C350.266 47.0092 347.706 40.8292 343.149 36.2726C338.593 31.7161 332.413 29.1562 325.969 29.1562Z" fill="url(#paint9_linear_646_371)"/>
<path d="M97.5781 53.4531V92.3281C99.1817 92.3281 100.785 92.5711 102.437 92.5711C110.116 92.5712 117.718 91.0548 124.809 88.1092C131.9 85.1635 138.339 80.8465 143.757 75.4059C149.175 69.9654 153.465 63.5083 156.381 56.4055C159.297 49.3026 160.782 41.6938 160.75 34.0156C160.75 32.3634 160.75 30.7598 160.507 29.1562H121.875C115.431 29.1562 109.251 31.7161 104.695 36.2726C100.138 40.8292 97.5781 47.0092 97.5781 53.4531V53.4531Z" fill="url(#paint10_linear_646_371)"/>
<path d="M102.438 140.922C100.785 140.922 99.1817 140.922 97.5781 140.922V179.797C97.5781 186.241 100.138 192.421 104.695 196.978C109.251 201.534 115.431 204.094 121.875 204.094H160.75C160.75 202.491 160.993 200.887 160.993 199.235C160.993 191.557 159.477 183.954 156.531 176.863C153.585 169.773 149.268 163.334 143.828 157.916C138.387 152.498 131.93 148.207 124.827 145.291C117.724 142.375 110.116 140.89 102.438 140.922V140.922Z" fill="url(#paint11_linear_646_371)"/>
<path d="M350.266 141.163C348.662 141.163 347.058 141.163 345.406 141.163C329.983 141.163 315.188 147.273 304.259 158.156C293.33 169.04 287.158 183.809 287.094 199.233C287.094 200.885 287.094 202.488 287.094 204.092H325.969C332.413 204.092 338.593 201.532 343.149 196.976C347.706 192.419 350.266 186.239 350.266 179.795V141.163Z" fill="url(#paint12_linear_646_371)"/>
<path d="M249.326 140.594H239.723L210.833 96.8788V140.594H201.231V81.9702H210.833L239.723 125.601V81.9702H249.326V140.594Z" fill="#FFD156"/>
<path d="M194.914 112.798H255.643V117.01H194.914V112.798Z" fill="#FFD156"/>
<defs>
<linearGradient id="paint0_linear_646_371" x1="253.078" y1="174.938" x2="253.078" y2="0" gradientUnits="userSpaceOnUse">
<stop stop-color="#009E77"/>
<stop offset="1" stop-color="#00D291"/>
</linearGradient>
<linearGradient id="paint1_linear_646_371" x1="243.359" y1="174.938" x2="243.359" y2="19.4375" gradientUnits="userSpaceOnUse">
<stop stop-color="#00684E"/>
<stop offset="1" stop-color="#009C6B"/>
</linearGradient>
<linearGradient id="paint2_linear_646_371" x1="316.25" y1="31.5859" x2="379.422" y2="31.5859" gradientUnits="userSpaceOnUse">
<stop stop-color="#FFE37C"/>
<stop offset="1" stop-color="#FFC337"/>
</linearGradient>
<linearGradient id="paint3_linear_646_371" x1="126.734" y1="-53.4531" x2="189.906" y2="-53.4531" gradientUnits="userSpaceOnUse">
<stop stop-color="#FFE37C"/>
<stop offset="1" stop-color="#FFC337"/>
</linearGradient>
<linearGradient id="paint4_linear_646_371" x1="83" y1="143.35" x2="87.8594" y2="143.35" gradientUnits="userSpaceOnUse">
<stop stop-color="#FFE37C"/>
<stop offset="1" stop-color="#FFC337"/>
</linearGradient>
<linearGradient id="paint5_linear_646_371" x1="338.117" y1="174.936" x2="338.117" y2="113.659" gradientUnits="userSpaceOnUse">
<stop stop-color="#F7C944"/>
<stop offset="1" stop-color="#F7B314"/>
</linearGradient>
<linearGradient id="paint6_linear_646_371" x1="339.089" y1="61.2767" x2="339.089" y2="19.4375" gradientUnits="userSpaceOnUse">
<stop stop-color="#F7C944"/>
<stop offset="1" stop-color="#F7B314"/>
</linearGradient>
<linearGradient id="paint7_linear_646_371" x1="157.348" y1="63.1719" x2="157.348" y2="19.4375" gradientUnits="userSpaceOnUse">
<stop stop-color="#F7C944"/>
<stop offset="1" stop-color="#F7B314"/>
</linearGradient>
<linearGradient id="paint8_linear_646_371" x1="223.922" y1="204.094" x2="223.922" y2="29.1562" gradientUnits="userSpaceOnUse">
<stop stop-color="#009E77"/>
<stop offset="1" stop-color="#00D291"/>
</linearGradient>
<linearGradient id="paint9_linear_646_371" x1="287.094" y1="60.7422" x2="350.266" y2="60.7422" gradientUnits="userSpaceOnUse">
<stop stop-color="#FFE37C"/>
<stop offset="1" stop-color="#FFC337"/>
</linearGradient>
<linearGradient id="paint10_linear_646_371" x1="97.5781" y1="60.7422" x2="160.75" y2="60.7422" gradientUnits="userSpaceOnUse">
<stop stop-color="#FFE37C"/>
<stop offset="1" stop-color="#FFC337"/>
</linearGradient>
<linearGradient id="paint11_linear_646_371" x1="97.5781" y1="172.508" x2="160.75" y2="172.508" gradientUnits="userSpaceOnUse">
<stop stop-color="#FFE37C"/>
<stop offset="1" stop-color="#FFC337"/>
</linearGradient>
<linearGradient id="paint12_linear_646_371" x1="287.094" y1="172.506" x2="350.266" y2="172.506" gradientUnits="userSpaceOnUse">
<stop stop-color="#FFE37C"/>
<stop offset="1" stop-color="#FFC337"/>
</linearGradient>
</defs>
</svg>
