<svg width="339" height="317" viewBox="0 0 339 317" fill="none" xmlns="http://www.w3.org/2000/svg">
<circle cx="202.341" cy="187.328" r="129.5" fill="#EBEBEB"/>
<path d="M199.56 139.552C192.586 122.709 182.367 107.403 169.485 94.5046L154.579 79.5984L154.119 79.1387C152.074 77.0352 149.879 75.082 147.552 73.2944C146.043 72.2378 144.19 71.792 142.365 72.0467V72.0467H141.642H69.4094H68.9498C68.0202 71.8417 67.0572 71.8412 66.1274 72.0453C65.1976 72.2494 64.3233 72.6532 63.5651 73.2287C61.2385 75.0164 59.044 76.9695 56.9985 79.073L56.5388 79.5327L41.6325 94.439C28.5159 107.227 18.0787 122.501 10.9305 139.368C3.78237 156.235 0.0665363 174.357 3.08611e-05 192.676C-0.00860701 201.871 1.79611 210.977 5.3109 219.474C8.82569 227.971 13.9816 235.691 20.4834 242.193C26.9853 248.695 34.7055 253.851 43.2022 257.365C51.699 260.88 60.8054 262.685 70.0004 262.676H140.132C158.692 262.659 176.487 255.278 189.611 242.154C202.735 229.031 210.115 211.236 210.133 192.676C210.141 174.444 206.548 156.391 199.56 139.552V139.552ZM140.132 249.543H70.0004C54.9237 249.526 40.4694 243.529 29.8085 232.868C19.1476 222.207 13.1507 207.753 13.1333 192.676C13.0898 176.166 16.3236 159.811 22.6473 144.56C28.9709 129.309 38.2587 115.465 49.9722 103.829L64.8784 88.923C66.0815 87.6715 67.353 86.4877 68.6871 85.377H141.445C142.78 86.4877 144.051 87.6715 145.254 88.923L160.16 103.829C171.874 115.465 181.162 129.309 187.485 144.56C193.809 159.811 197.043 176.166 196.999 192.676C196.999 207.758 191.008 222.222 180.343 232.887C169.679 243.552 155.214 249.543 140.132 249.543Z" fill="#1ED760"/>
<path d="M187.478 144.482C181.162 129.214 171.876 115.353 160.16 103.703L145.254 88.797C144.051 87.5455 142.78 86.3617 141.446 85.251H68.6871C67.353 86.3617 66.0815 87.5455 64.8785 88.797L49.9722 103.703C38.2429 115.354 28.9461 129.22 22.622 144.495C16.2978 159.77 13.0725 176.149 13.1334 192.681C13.1507 207.758 19.1477 222.212 29.8085 232.873C40.4694 243.534 54.9237 249.531 70.0005 249.548H140.132C155.214 249.548 169.679 243.557 180.343 232.892C191.008 222.228 196.999 207.763 196.999 192.681C197.019 176.146 193.783 159.768 187.478 144.482V144.482ZM105.066 229.848C95.975 229.848 87.0879 227.153 79.5287 222.102C71.9696 217.051 66.0779 209.872 62.5988 201.473C59.1197 193.073 58.2094 183.831 59.9831 174.914C61.7567 165.998 66.1346 157.807 72.5631 151.379C78.9916 144.95 87.1821 140.572 96.0987 138.799C105.015 137.025 114.258 137.935 122.657 141.414C131.056 144.894 138.235 150.785 143.286 158.344C148.337 165.903 151.033 174.791 151.033 183.882C151.033 196.073 146.19 207.765 137.57 216.385C128.949 225.006 117.257 229.848 105.066 229.848V229.848Z" fill="#01AF80"/>
<path d="M137.9 0.0100575C133.335 -0.030983 128.924 1.65831 125.554 4.73804C123.847 6.11703 123.256 6.5767 121.483 6.5767C119.71 6.5767 119.119 6.11703 117.412 4.73804C114.023 1.68781 109.625 0 105.066 0C100.507 0 96.1095 1.68781 92.7211 4.73804C91.0137 6.11703 90.4227 6.5767 88.6497 6.5767C86.8768 6.5767 86.2858 6.11703 84.5784 4.73804C81.2088 1.65831 76.7979 -0.030983 72.2331 0.0100575C70.4916 0.0100575 68.8213 0.701899 67.5898 1.93338C66.3583 3.16487 65.6665 4.83512 65.6665 6.5767V39.4099C65.6679 43.8876 66.4455 48.3311 67.9648 52.5432C69.2439 56.3045 71.1293 59.8313 73.5465 62.9841C74.1581 63.7997 74.9513 64.4616 75.8631 64.9175C76.7749 65.3734 77.7803 65.6108 78.7998 65.6108H131.333C132.352 65.6108 133.358 65.3734 134.27 64.9175C135.181 64.4616 135.975 63.7997 136.586 62.9841C139.003 59.8313 140.889 56.3045 142.168 52.5432C143.687 48.3311 144.465 43.8876 144.466 39.4099V6.5767C144.466 4.83512 143.774 3.16487 142.543 1.93338C141.311 0.701899 139.641 0.0100575 137.9 0.0100575V0.0100575ZM82.2801 52.5432C79.9707 48.5536 78.7692 44.0195 78.7998 39.4099V16.8207C81.7034 18.7832 85.1461 19.793 88.6497 19.71C93.2145 19.751 97.6254 18.0617 100.995 14.982C102.702 13.603 103.293 13.1433 105.066 13.1433C106.839 13.1433 107.43 13.603 109.138 14.982C112.507 18.0617 116.918 19.751 121.483 19.71C124.987 19.793 128.429 18.7832 131.333 16.8207V39.4099C131.364 44.0195 130.162 48.5536 127.853 52.5432H82.2801Z" fill="#1ED760"/>
<path d="M131.333 16.8218V39.4111C131.363 44.0207 130.162 48.5548 127.853 52.5444H82.28C79.9707 48.5548 78.7691 44.0207 78.7997 39.4111V16.8218C81.7034 18.7844 85.146 19.7942 88.6497 19.7112C93.2144 19.7522 97.6254 18.0629 100.995 14.9832C102.702 13.6042 103.293 13.1445 105.066 13.1445C106.839 13.1445 107.43 13.6042 109.138 14.9832C112.507 18.0629 116.918 19.7522 121.483 19.7112C124.987 19.7942 128.429 18.7844 131.333 16.8218V16.8218Z" fill="#01AF80"/>
<path d="M142.168 52.5449H67.9648C65.0169 52.7522 62.1795 53.7514 59.7522 55.4371C57.3249 57.1227 55.3977 59.4324 54.1738 62.1222C52.9499 64.8121 52.4748 67.7824 52.7986 70.7198C53.1224 73.6573 54.2331 76.4528 56.0135 78.8115C58.1941 81.7105 61.3375 83.7363 64.8785 84.5245C66.1154 84.8855 67.3987 85.0625 68.6871 85.0498H141.445C142.574 85.0629 143.7 84.9305 144.794 84.6558C148.483 83.8385 151.776 81.7744 154.119 78.8115C156.3 75.9833 157.519 72.532 157.599 68.9615C157.623 64.7683 156.034 60.7264 153.162 57.6711C150.29 54.6158 146.354 52.7806 142.168 52.5449V52.5449ZM142.168 72.2448H141.445H69.2124H68.4901C67.6193 72.1491 66.8222 71.7113 66.2742 71.0278C65.7262 70.3443 65.4722 69.4711 65.568 68.6004C65.6637 67.7296 66.1015 66.9325 66.785 66.3845C67.4685 65.8365 68.3417 65.5824 69.2124 65.6782H141.445C142.316 65.5563 143.2 65.7853 143.902 66.3148C144.604 66.8444 145.067 67.6311 145.188 68.5019C145.31 69.3727 145.081 70.2562 144.552 70.9582C144.022 71.6601 143.236 72.1229 142.365 72.2448H142.168Z" fill="#EBAC63"/>
<path d="M144.466 68.9601C144.463 69.662 144.23 70.3434 143.803 70.9006C143.376 71.4578 142.779 71.8602 142.102 72.0464V72.0464H141.38H69.1468H68.4245C67.5537 71.9506 66.7566 71.5128 66.2086 70.8294C65.6606 70.1459 65.4065 69.2727 65.5023 68.4019C65.5981 67.5311 66.0359 66.7341 66.7194 66.1861C67.4028 65.638 68.276 65.384 69.1468 65.4798H141.38C141.811 65.5049 142.234 65.6149 142.622 65.8036C143.011 65.9922 143.359 66.2558 143.646 66.5791C143.932 66.9025 144.152 67.2792 144.293 67.6878C144.434 68.0964 144.493 68.5288 144.466 68.9601Z" fill="#FFDE73"/>
<path d="M105.066 137.912C95.975 137.912 87.0878 140.608 79.5287 145.659C71.9695 150.71 66.0779 157.889 62.5988 166.288C59.1197 174.687 58.2094 183.93 59.983 192.846C61.7567 201.763 66.1346 209.953 72.5631 216.382C78.9916 222.81 87.1821 227.188 96.0987 228.962C105.015 230.735 114.258 229.825 122.657 226.346C131.056 222.867 138.235 216.975 143.286 209.416C148.337 201.857 151.033 192.97 151.033 183.879C151.033 171.688 146.19 159.996 137.57 151.375C128.949 142.755 117.257 137.912 105.066 137.912V137.912ZM105.066 216.712C98.5725 216.712 92.2245 214.786 86.8252 211.178C81.4258 207.571 77.2174 202.443 74.7324 196.443C72.2473 190.444 71.5971 183.842 72.864 177.473C74.1309 171.104 77.2579 165.254 81.8497 160.662C86.4415 156.07 92.2918 152.943 98.6609 151.676C105.03 150.409 111.632 151.06 117.631 153.545C123.631 156.03 128.758 160.238 132.366 165.637C135.974 171.037 137.9 177.385 137.9 183.879C137.9 192.586 134.44 200.938 128.283 207.095C122.125 213.253 113.774 216.712 105.066 216.712V216.712Z" fill="#EBAC63"/>
<path d="M105.066 216.71C123.2 216.71 137.899 202.01 137.899 183.877C137.899 165.744 123.2 151.044 105.066 151.044C86.933 151.044 72.2331 165.744 72.2331 183.877C72.2331 202.01 86.933 216.71 105.066 216.71Z" fill="#FFDE73"/>
</svg>
