<svg width="385" height="315" viewBox="0 0 385 315" fill="none" xmlns="http://www.w3.org/2000/svg">
<circle cx="255.5" cy="185.5" r="129.5" fill="#EBEBEB"/>
<g filter="url(#filter0_d_646_370)">
<path d="M0.70874 148.01V103.989V18.3483C0.70874 11.3002 6.37874 5.59082 13.3481 5.59082H238.022C245.031 5.59082 250.701 11.3002 250.701 18.3483V103.989V148.01" fill="#40596B"/>
<path d="M250.701 35.9102H0.70874V65.5595H250.701V35.9102Z" fill="#01B783"/>
<path d="M239.242 246.408H12.7575C5.70938 246.408 0 240.699 0 233.651V103.989C0 96.9408 5.70938 91.2314 12.7575 91.2314H239.242C246.291 91.2314 252 96.9408 252 103.989V233.69C252 240.699 246.291 246.408 239.242 246.408Z" fill="#EBEBEB"/>
<path d="M75.7575 132.379H19.3725C17.325 132.379 15.6712 130.725 15.6712 128.678C15.6712 126.63 17.325 124.977 19.3725 124.977H75.7181C77.7656 124.977 79.4194 126.63 79.4194 128.678C79.4194 130.725 77.7656 132.379 75.7575 132.379ZM117.219 158.957H19.3725C17.325 158.957 15.6712 157.303 15.6712 155.256C15.6712 153.208 17.325 151.555 19.3725 151.555H117.18C119.227 151.555 120.881 153.208 120.881 155.256C120.881 157.303 119.267 158.957 117.219 158.957ZM117.219 185.535H19.3725C17.325 185.535 15.6712 183.882 15.6712 181.834C15.6712 179.787 17.325 178.133 19.3725 178.133H117.18C119.227 178.133 120.881 179.787 120.881 181.834C120.881 183.882 119.267 185.535 117.219 185.535Z" fill="#CDD5DF"/>
<path d="M228.887 225.422H23.1131C21.0656 225.422 19.4119 223.768 19.4119 221.721C19.4119 219.673 21.0656 218.02 23.1131 218.02H228.887C230.934 218.02 232.588 219.673 232.588 221.721C232.588 223.768 230.934 225.422 228.887 225.422Z" fill="#89D6F7"/>
<path d="M191.52 161.636C187.228 164.983 181.794 166.952 175.888 166.952C161.831 166.952 150.373 155.533 150.373 141.437C150.373 127.38 161.831 115.922 175.888 115.922C181.794 115.922 187.228 117.93 191.52 121.238" fill="#F2705B"/>
<path d="M232.627 141.437C232.627 155.533 221.209 166.952 207.112 166.952C193.016 166.952 181.597 155.533 181.597 141.437C181.597 127.341 193.016 115.922 207.112 115.922C221.209 115.922 232.627 127.341 232.627 141.437Z" fill="#FFD05C"/>
</g>
<defs>
<filter id="filter0_d_646_370" x="0" y="0" width="259.226" height="259.226" filterUnits="userSpaceOnUse" color-interpolation-filters="sRGB">
<feFlood flood-opacity="0" result="BackgroundImageFix"/>
<feColorMatrix in="SourceAlpha" type="matrix" values="0 0 0 0 0 0 0 0 0 0 0 0 0 0 0 0 0 0 127 0" result="hardAlpha"/>
<feOffset dx="3.6129" dy="3.6129"/>
<feGaussianBlur stdDeviation="1.80645"/>
<feComposite in2="hardAlpha" operator="out"/>
<feColorMatrix type="matrix" values="0 0 0 0 0 0 0 0 0 0 0 0 0 0 0 0 0 0 0.1 0"/>
<feBlend mode="normal" in2="BackgroundImageFix" result="effect1_dropShadow_646_370"/>
<feBlend mode="normal" in="SourceGraphic" in2="effect1_dropShadow_646_370" result="shape"/>
</filter>
</defs>
</svg>
