<svg width="356" height="289" viewBox="0 0 356 289" fill="none" xmlns="http://www.w3.org/2000/svg">
<circle cx="129.5" cy="159.144" r="129.5" fill="#EBEBEB"/>
<path d="M107.286 0V110.786H166.036H169.393H293.607H296.293H355.714V0H107.286Z" fill="#1ED760"/>
<path d="M134.143 26.8574V83.9289H167.043H169.393H293.607H328.857V26.8574H134.143Z" fill="#01A97D"/>
<path d="M265.071 225.599V56.3994H293.607V207.471C293.607 212.813 291.485 217.936 287.707 221.714C283.93 225.492 278.806 227.614 273.464 227.614H265.071V225.599Z" fill="#FEDB41"/>
<path d="M265.071 225.599V227.614H241.571V225.599V57.7423V56.3994H265.071V57.7423V225.599Z" fill="#00ACEA"/>
<path d="M241.571 225.599V227.614H189.536C184.193 227.614 179.07 225.492 175.293 221.714C171.515 217.936 169.393 212.813 169.393 207.471V56.3994H241.571V225.599Z" fill="#FEDB41"/>
<path d="M205.986 153.085C209.547 153.085 212.963 154.5 215.481 157.018C217.999 159.536 219.414 162.952 219.414 166.514C219.427 168.518 218.98 170.499 218.107 172.303C217.234 174.107 215.959 175.687 214.378 176.921C215.906 178.201 217.144 179.791 218.012 181.584C218.88 183.378 219.358 185.336 219.414 187.328C219.414 190.889 217.999 194.305 215.481 196.823C212.963 199.342 209.547 200.756 205.986 200.756C202.424 200.756 199.009 199.342 196.49 196.823C193.972 194.305 192.557 190.889 192.557 187.328C192.55 185.358 192.966 183.409 193.777 181.614C194.588 179.818 195.775 178.218 197.257 176.921C195.719 175.67 194.493 174.079 193.678 172.272C192.862 170.466 192.478 168.494 192.557 166.514C192.557 162.952 193.972 159.536 196.49 157.018C199.009 154.5 202.424 153.085 205.986 153.085Z" fill="#1ED760"/>
</svg>
